{
  "accessors": [
    {
      "bufferView": 2,
      "componentType": 5126,
      "count": 984,
      "max": [
        1.0,
        1.0,
        2.2974863052368164
      ],
      "min": [
        -1.1687772274017334,
        -1.0,
        -1.0
      ],
      "type": "VEC3"
    },
    {
      "bufferView": 2,
      "byteOffset": 11808,
      "componentType": 5126,
      "count": 984,
      "max": [
        0.9951395988464355,
        0.9993343949317932,
        0.9914698004722595
      ],
      "min": [
        -0.9951395988464355,
        -0.9993343949317932,
        -0.9914698004722595
      ],
      "type": "VEC3"
    },
    {
      "bufferView": 1,
      "componentType": 5126,
      "count": 984,
      "max": [
        0.9468923807144165,
        0.9938995242118835
      ],
      "min": [
        0.025296896696090698,
        0.03044423833489418
      ],
      "type": "VEC2"
    },
    {
      "bufferView": 0,
      "componentType": 5125,
      "count": 4182,
      "type": "SCALAR"
    },
    {
      "bufferView": 2,
      "byteOffset": 23616,
      "componentType": 5126,
      "count": 991,
      "max": [
        1.0,
        1.0,
        2.2974863052368164
      ],
      "min": [
        -1.1687772274017334,
        -1.0,
        -1.0
      ],
      "type": "VEC3"
    },
    {
      "bufferView": 2,
      "byteOffset": 35508,
      "componentType": 5126,
      "count": 991,
      "max": [
        0.9951395988464355,
        0.9993343949317932,
        0.9914698004722595
      ],
      "min": [
        -0.9951395988464355,
        -0.9993343949317932,
        -0.9914698004722595
      ],
      "type": "VEC3"
    },
    {
      "bufferView": 1,
      "byteOffset": 7872,
      "componentType": 5126,
      "count": 991,
      "max": [
        0.9468923807144165,
        0.7030783891677856
      ],
      "min": [
        0.025296896696090698,
        0.01677236519753933
      ],
      "type": "VEC2"
    },
    {
      "bufferView": 0,
      "byteOffset": 16728,
      "componentType": 5125,
      "count": 4182,
      "type": "SCALAR"
    },
    {
      "bufferView": 2,
      "byteOffset": 47400,
      "componentType": 5126,
      "count": 1050,
      "max": [
        1.0,
        1.0,
        2.2974863052368164
      ],
      "min": [
        -1.1687772274017334,
        -1.0,
        -1.0
      ],
      "type": "VEC3"
    },
    {
      "bufferView": 2,
      "byteOffset": 60000,
      "componentType": 5126,
      "count": 1050,
      "max": [
        0.9951395988464355,
        0.9993343949317932,
        0.9914698004722595
      ],
      "min": [
        -0.9951395988464355,
        -0.9993343949317932,
        -0.9914698004722595
      ],
      "type": "VEC3"
    },
    {
      "bufferView": 1,
      "byteOffset": 15800,
      "componentType": 5126,
      "count": 1050,
      "max": [
        0.9468923807144165,
        0.4027778208255768
      ],
      "min": [
        0.010821100324392319,
        0.02067861333489418
      ],
      "type": "VEC2"
    },
    {
      "bufferView": 0,
      "byteOffset": 33456,
      "componentType": 5125,
      "count": 4182,
      "type": "SCALAR"
    }
  ],
  "asset": {
    "extras": {
      "author": "cozypoly3d (https://sketchfab.com/cozypoly3d)",
      "license": "CC-BY-4.0 (http://creativecommons.org/licenses/by/4.0/)",
      "source": "https://sketchfab.com/3d-models/free-milk-alternative-packages-drink-8f512b4ad5444fec9874271068e0be4b",
      "title": "FREE_Milk Alternative Packages Drink"
    },
    "generator": "Sketchfab-15.49.0",
    "version": "2.0"
  },
  "bufferViews": [
    {
      "buffer": 0,
      "byteLength": 50184,
      "name": "floatBufferViews",
      "target": 34963
    },
    {
      "buffer": 0,
      "byteLength": 24200,
      "byteOffset": 50184,
      "byteStride": 8,
      "name": "floatBufferViews",
      "target": 34962
    },
    {
      "buffer": 0,
      "byteLength": 72600,
      "byteOffset": 74384,
      "byteStride": 12,
      "name": "floatBufferViews",
      "target": 34962
    }
  ],
  "buffers": [
    {
      "byteLength": 146984,
      "uri": "scene.bin"
    }
  ],
  "images": [
    {
      "uri": "textures/Material.002_baseColor.png"
    }
  ],
  "materials": [
    {
      "doubleSided": true,
      "name": "Material.002",
      "pbrMetallicRoughness": {
        "baseColorTexture": {
          "index": 0
        },
        "metallicFactor": 0.0,
        "roughnessFactor": 0.8211145618000169
      }
    }
  ],
  "meshes": [
    {
      "name": "Milk_Material.002_0",
      "primitives": [
        {
          "attributes": {
            "NORMAL": 1,
            "POSITION": 0,
            "TEXCOORD_0": 2
          },
          "indices": 3,
          "material": 0,
          "mode": 4
        }
      ]
    },
    {
      "name": "Almond Milk_Material.002_0",
      "primitives": [
        {
          "attributes": {
            "NORMAL": 5,
            "POSITION": 4,
            "TEXCOORD_0": 6
          },
          "indices": 7,
          "material": 0,
          "mode": 4
        }
      ]
    },
    {
      "name": "Soya Milk_Material.002_0",
      "primitives": [
        {
          "attributes": {
            "NORMAL": 9,
            "POSITION": 8,
            "TEXCOORD_0": 10
          },
          "indices": 11,
          "material": 0,
          "mode": 4
        }
      ]
    }
  ],
  "nodes": [
    {
      "children": [
        1
      ],
      "matrix": [
        1.0,
        0.0,
        0.0,
        0.0,
        0.0,
        2.220446049250313e-16,
        -1.0,
        0.0,
        0.0,
        1.0,
        2.220446049250313e-16,
        0.0,
        0.0,
        0.0,
        0.0,
        1.0
      ],
      "name": "Sketchfab_model"
    },
    {
      "children": [
        2
      ],
      "matrix": [
        0.009999999776482582,
        0.0,
        0.0,
        0.0,
        0.0,
        0.0,
        0.009999999776482582,
        0.0,
        0.0,
        -0.009999999776482582,
        0.0,
        0.0,
        0.0,
        0.0,
        0.0,
        1.0
      ],
      "name": "00.fbx"
    },
    {
      "children": [
        3,
        5,
        7
      ],
      "name": "RootNode"
    },
    {
      "children": [
        4
      ],
      "matrix": [
        -81.68827819824186,
        -7.141416357538964e-06,
        0.0,
        0.0,
        -1.1634844073192288e-12,
        1.3308709827752651e-05,
        81.6882781982411,
        0.0,
        -8.74227798045637e-06,
        99.99999999999828,
        -1.6292067983592062e-05,
        0.0,
        0.0,
        0.0,
        0.0,
        1.0
      ],
      "name": "Milk"
    },
    {
      "mesh": 0,
      "name": "Milk_Material.002_0"
    },
    {
      "children": [
        6
      ],
      "matrix": [
        -81.68827819824186,
        -7.141416357538964e-06,
        0.0,
        0.0,
        -1.1634844073192288e-12,
        1.3308709827752651e-05,
        81.6882781982411,
        0.0,
        -8.74227798045637e-06,
        99.99999999999828,
        -1.6292067983592062e-05,
        0.0,
        0.0,
        0.0,
        -200.0,
        1.0
      ],
      "name": "Almond Milk"
    },
    {
      "mesh": 1,
      "name": "Almond Milk_Material.002_0"
    },
    {
      "children": [
        8
      ],
      "matrix": [
        -81.68827819824186,
        -7.141416357538964e-06,
        0.0,
        0.0,
        -1.1634844073192288e-12,
        1.3308709827752651e-05,
        81.6882781982411,
        0.0,
        -8.74227798045637e-06,
        99.99999999999828,
        -1.6292067983592062e-05,
        0.0,
        0.0,
        0.0,
        200.0,
        1.0
      ],
      "name": "Soya Milk"
    },
    {
      "mesh": 2,
      "name": "Soya Milk_Material.002_0"
    }
  ],
  "samplers": [
    {
      "magFilter": 9729,
      "minFilter": 9987,
      "wrapS": 10497,
      "wrapT": 10497
    }
  ],
  "scene": 0,
  "scenes": [
    {
      "name": "Sketchfab_Scene",
      "nodes": [
        0
      ]
    }
  ],
  "textures": [
    {
      "sampler": 0,
      "source": 0
    }
  ]
}
